<mxfile host="app.diagrams.net" modified="2021-02-26T14:09:23.608Z" agent="5.0 (Windows NT 10.0; Win64; x64) AppleWebKit/537.36 (KHTML, like Gecko) Chrome/65.0.3325.146 Safari/537.36" etag="HpkWywqNxwAKv-85AVsl" version="14.4.2" type="github">
  <diagram id="VM6911rxdJuWlFI-977e" name="Page-1">
    <mxGraphModel dx="1038" dy="511" grid="1" gridSize="10" guides="1" tooltips="1" connect="1" arrows="1" fold="1" page="1" pageScale="1" pageWidth="827" pageHeight="1169" math="0" shadow="0">
      <root>
        <mxCell id="0" />
        <mxCell id="1" parent="0" />
        <mxCell id="WYmiNTyMumUFo2SpuKxb-1" value="&lt;font style=&quot;font-size: 20px;&quot;&gt;服务消费者&lt;/font&gt;" style="ellipse;whiteSpace=wrap;html=1;fontSize=20;" vertex="1" parent="1">
          <mxGeometry x="110" y="130" width="120" height="80" as="geometry" />
        </mxCell>
        <mxCell id="WYmiNTyMumUFo2SpuKxb-2" value="&lt;span style=&quot;font-size: 20px&quot;&gt;服务提供者&lt;/span&gt;" style="ellipse;whiteSpace=wrap;html=1;" vertex="1" parent="1">
          <mxGeometry x="400" y="130" width="120" height="80" as="geometry" />
        </mxCell>
        <mxCell id="WYmiNTyMumUFo2SpuKxb-9" value="网络传输" style="rounded=1;whiteSpace=wrap;html=1;fontSize=20;" vertex="1" parent="1">
          <mxGeometry x="260" y="380" width="120" height="60" as="geometry" />
        </mxCell>
        <mxCell id="WYmiNTyMumUFo2SpuKxb-10" value="&lt;font color=&quot;#33ff33&quot;&gt;序列化&lt;/font&gt;&lt;font color=&quot;#ff0000&quot;&gt;/&lt;/font&gt;&lt;font color=&quot;#0000ff&quot;&gt;反序列化&lt;/font&gt;" style="rounded=1;whiteSpace=wrap;html=1;fontSize=20;" vertex="1" parent="1">
          <mxGeometry x="110" y="290" width="120" height="60" as="geometry" />
        </mxCell>
        <mxCell id="WYmiNTyMumUFo2SpuKxb-12" value="&lt;font style=&quot;font-size: 18px&quot;&gt;TCP&lt;/font&gt;" style="text;html=1;strokeColor=none;fillColor=none;align=center;verticalAlign=middle;whiteSpace=wrap;rounded=0;" vertex="1" parent="1">
          <mxGeometry x="300" y="460" width="40" height="20" as="geometry" />
        </mxCell>
        <mxCell id="WYmiNTyMumUFo2SpuKxb-13" value="&lt;font color=&quot;#33ff33&quot;&gt;反序列化&lt;/font&gt;&lt;font color=&quot;#ff3333&quot;&gt;/&lt;/font&gt;&lt;font color=&quot;#0000ff&quot;&gt;序列化&lt;/font&gt;" style="rounded=1;whiteSpace=wrap;html=1;fontSize=20;" vertex="1" parent="1">
          <mxGeometry x="400" y="290" width="120" height="60" as="geometry" />
        </mxCell>
        <mxCell id="WYmiNTyMumUFo2SpuKxb-18" value="&lt;font style=&quot;font-size: 18px&quot;&gt;请求&lt;/font&gt;" style="endArrow=classic;html=1;strokeWidth=3;strokeColor=#33FF33;" edge="1" parent="1">
          <mxGeometry width="50" height="50" relative="1" as="geometry">
            <mxPoint x="150" y="220" as="sourcePoint" />
            <mxPoint x="150" y="276" as="targetPoint" />
          </mxGeometry>
        </mxCell>
        <mxCell id="WYmiNTyMumUFo2SpuKxb-20" value="" style="endArrow=classic;html=1;strokeWidth=2;strokeColor=#33FF33;" edge="1" parent="1">
          <mxGeometry width="50" height="50" relative="1" as="geometry">
            <mxPoint x="145" y="370" as="sourcePoint" />
            <mxPoint x="250" y="430" as="targetPoint" />
            <Array as="points">
              <mxPoint x="145" y="430" />
            </Array>
          </mxGeometry>
        </mxCell>
        <mxCell id="WYmiNTyMumUFo2SpuKxb-30" value="&lt;span style=&quot;font-size: 18px&quot;&gt;请求&lt;/span&gt;" style="edgeLabel;html=1;align=center;verticalAlign=middle;resizable=0;points=[];fontSize=20;" vertex="1" connectable="0" parent="WYmiNTyMumUFo2SpuKxb-20">
          <mxGeometry x="0.0764" y="-3" relative="1" as="geometry">
            <mxPoint as="offset" />
          </mxGeometry>
        </mxCell>
        <mxCell id="WYmiNTyMumUFo2SpuKxb-21" value="&lt;span style=&quot;font-size: 18px&quot;&gt;请求&lt;/span&gt;" style="endArrow=classic;html=1;strokeColor=#33FF33;strokeWidth=3;" edge="1" parent="1">
          <mxGeometry width="50" height="50" relative="1" as="geometry">
            <mxPoint x="390" y="430" as="sourcePoint" />
            <mxPoint x="490" y="360" as="targetPoint" />
            <Array as="points">
              <mxPoint x="490" y="430" />
            </Array>
          </mxGeometry>
        </mxCell>
        <mxCell id="WYmiNTyMumUFo2SpuKxb-22" value="" style="endArrow=classic;html=1;strokeColor=#33FF33;strokeWidth=3;" edge="1" parent="1">
          <mxGeometry width="50" height="50" relative="1" as="geometry">
            <mxPoint x="490" y="280" as="sourcePoint" />
            <mxPoint x="490" y="220" as="targetPoint" />
          </mxGeometry>
        </mxCell>
        <mxCell id="WYmiNTyMumUFo2SpuKxb-31" value="&lt;font style=&quot;font-size: 18px&quot;&gt;请求&lt;/font&gt;" style="edgeLabel;html=1;align=center;verticalAlign=middle;resizable=0;points=[];fontSize=20;" vertex="1" connectable="0" parent="WYmiNTyMumUFo2SpuKxb-22">
          <mxGeometry x="-0.34" y="-1" relative="1" as="geometry">
            <mxPoint as="offset" />
          </mxGeometry>
        </mxCell>
        <mxCell id="WYmiNTyMumUFo2SpuKxb-24" value="" style="endArrow=classic;html=1;strokeWidth=2;strokeColor=#0000FF;" edge="1" parent="1">
          <mxGeometry width="50" height="50" relative="1" as="geometry">
            <mxPoint x="440" y="220" as="sourcePoint" />
            <mxPoint x="440" y="280" as="targetPoint" />
          </mxGeometry>
        </mxCell>
        <mxCell id="WYmiNTyMumUFo2SpuKxb-32" value="&lt;font style=&quot;font-size: 18px&quot;&gt;返回值&lt;/font&gt;" style="edgeLabel;html=1;align=center;verticalAlign=middle;resizable=0;points=[];fontSize=20;" vertex="1" connectable="0" parent="WYmiNTyMumUFo2SpuKxb-24">
          <mxGeometry x="-0.36" y="-1" relative="1" as="geometry">
            <mxPoint as="offset" />
          </mxGeometry>
        </mxCell>
        <mxCell id="WYmiNTyMumUFo2SpuKxb-25" value="r&lt;font style=&quot;font-size: 18px&quot;&gt;返回值&lt;/font&gt;" style="endArrow=classic;html=1;strokeColor=#0000FF;strokeWidth=2;" edge="1" parent="1">
          <mxGeometry width="50" height="50" relative="1" as="geometry">
            <mxPoint x="200" y="280" as="sourcePoint" />
            <mxPoint x="200" y="220" as="targetPoint" />
          </mxGeometry>
        </mxCell>
        <mxCell id="WYmiNTyMumUFo2SpuKxb-26" value="&lt;font style=&quot;font-size: 18px&quot;&gt;返回值&lt;/font&gt;" style="endArrow=classic;html=1;strokeWidth=2;strokeColor=#0000FF;" edge="1" parent="1">
          <mxGeometry width="50" height="50" relative="1" as="geometry">
            <mxPoint x="440" y="360" as="sourcePoint" />
            <mxPoint x="390" y="410" as="targetPoint" />
            <Array as="points">
              <mxPoint x="440" y="410" />
            </Array>
          </mxGeometry>
        </mxCell>
        <mxCell id="WYmiNTyMumUFo2SpuKxb-27" value="" style="endArrow=classic;html=1;strokeColor=#0000FF;strokeWidth=2;" edge="1" parent="1">
          <mxGeometry width="50" height="50" relative="1" as="geometry">
            <mxPoint x="250" y="400" as="sourcePoint" />
            <mxPoint x="200" y="370" as="targetPoint" />
            <Array as="points">
              <mxPoint x="200" y="400" />
            </Array>
          </mxGeometry>
        </mxCell>
        <mxCell id="WYmiNTyMumUFo2SpuKxb-33" value="&lt;font style=&quot;font-size: 18px&quot;&gt;返回值&lt;/font&gt;" style="edgeLabel;html=1;align=center;verticalAlign=middle;resizable=0;points=[];fontSize=20;" vertex="1" connectable="0" parent="WYmiNTyMumUFo2SpuKxb-27">
          <mxGeometry x="0.03" y="-2" relative="1" as="geometry">
            <mxPoint as="offset" />
          </mxGeometry>
        </mxCell>
        <mxCell id="WYmiNTyMumUFo2SpuKxb-34" value="请求" style="endArrow=classic;html=1;strokeWidth=2;fontSize=20;strokeColor=#33FF33;dashed=1;" edge="1" parent="1">
          <mxGeometry width="50" height="50" relative="1" as="geometry">
            <mxPoint x="240" y="160" as="sourcePoint" />
            <mxPoint x="390" y="160" as="targetPoint" />
          </mxGeometry>
        </mxCell>
        <mxCell id="WYmiNTyMumUFo2SpuKxb-35" value="返回" style="endArrow=classic;html=1;strokeColor=#0000FF;strokeWidth=2;fontSize=20;dashed=1;" edge="1" parent="1">
          <mxGeometry width="50" height="50" relative="1" as="geometry">
            <mxPoint x="390" y="180" as="sourcePoint" />
            <mxPoint x="240" y="180" as="targetPoint" />
          </mxGeometry>
        </mxCell>
      </root>
    </mxGraphModel>
  </diagram>
</mxfile>
